<svg xmlns="http://www.w3.org/2000/svg" viewBox="0 0 160 120" role="img" aria-label="Amora">
  <rect width="160" height="120" rx="18" fill="#f3f7f4"/>
  <g transform="translate(36 20)">
    <ellipse cx="40" cy="43" rx="35" ry="40" fill="#15121d"/>
    <circle cx="25" cy="20" r="13" fill="#211b2b"/>
    <circle cx="42" cy="17" r="14" fill="#11101a"/>
    <circle cx="59" cy="24" r="13" fill="#231d31"/>
    <circle cx="22" cy="40" r="14" fill="#0d0d15"/>
    <circle cx="41" cy="39" r="15" fill="#1c1726"/>
    <circle cx="62" cy="43" r="14" fill="#100f18"/>
    <circle cx="27" cy="62" r="13" fill="#221b30"/>
    <circle cx="45" cy="64" r="14" fill="#11101b"/>
    <circle cx="61" cy="63" r="12" fill="#261e35"/>
    <circle cx="42" cy="83" r="12" fill="#171421"/>
    <path d="M31 13c7-10 18-10 28-4" fill="none" stroke="#4f8a3b" stroke-width="6" stroke-linecap="round"/>
    <path d="M45 10c6-6 14-8 24-6-4 9-11 14-22 14" fill="#65a84e"/>
    <circle cx="28" cy="18" r="4" fill="#4a405e" opacity=".9"/>
    <circle cx="48" cy="16" r="4" fill="#4a405e" opacity=".85"/>
    <circle cx="62" cy="37" r="4" fill="#5b4d72" opacity=".8"/>
    <circle cx="36" cy="49" r="4" fill="#5b4d72" opacity=".85"/>
    <circle cx="52" cy="68" r="4" fill="#4d4264" opacity=".9"/>
  </g>
</svg>
